<svg xmlns="http://www.w3.org/2000/svg" viewBox="4495 838 30 30">
  <defs>
    <style>
      .cls-1 {
        fill: #1feaff;
        fill-rule: evenodd;
      }
    </style>
  </defs>
  <path id="Fill-30" class="cls-1" d="M45.091,31.736l-.13-.022q-.236-.04-.529-.084l-.187-.028c-.261-.037-.543-.075-.854-.112l-.059-.006c-.29-.033-.6-.064-.929-.092l-.239-.019c-.335-.026-.682-.049-1.045-.065l-.088,0c-.4-.017-.818-.024-1.244-.024l-.191,0q-.558,0-1.133.035l-.227.012c-.45.028-.9.067-1.36.125-.091-.223-.172-.44-.268-.666-.269-.632-.561-1.259-.863-1.876.513-.21.986-.426,1.438-.651l.1-.05a16.623,16.623,0,0,0,5.413-4.1c.236.29.5.556.713.865a12.737,12.737,0,0,1,1.157,2.133,12.54,12.54,0,0,1,.732,2.356,12.842,12.842,0,0,1,.245,2.351c-.116-.023-.269-.051-.455-.083m.21,2.793a12.491,12.491,0,0,1-.732,2.358,12.533,12.533,0,0,1-2.69,3.989,12.605,12.605,0,0,1-1.771,1.469,56.791,56.791,0,0,0-2.448-8.863,18.433,18.433,0,0,1,5.825.051h.008c.575.095,1.054.2,1.415.291l.075.019c.159.04.3.079.4.109-.03.192-.049.386-.087.576m-7.414,9.04a12.531,12.531,0,0,1-2.358.732,12.7,12.7,0,0,1-5.06,0,12.506,12.506,0,0,1-4.489-1.889c-.252-.171-.493-.36-.733-.549.063-.117.163-.288.28-.478.02-.032.037-.061.058-.095.125-.2.284-.431.466-.683l.108-.147c.2-.265.424-.552.685-.856.039-.045.082-.092.122-.137.287-.326.6-.666.968-1.017h0c.357-.344.767-.7,1.2-1.048.066-.053.129-.107.2-.16.432-.337.909-.672,1.42-1,.1-.062.195-.124.294-.185.53-.328,1.1-.646,1.715-.949.092-.045.191-.088.286-.132a21.647,21.647,0,0,1,2.128-.879l.082-.025a54.028,54.028,0,0,1,2.694,9.464c-.024.01-.046.024-.069.033M24.64,38.855c-.221.286-.413.547-.571.773-.029.041-.048.069-.074.108-.15.219-.278.412-.363.547a12.909,12.909,0,0,1-1.044-1.262,12.764,12.764,0,0,1-1.157-2.133,12.443,12.443,0,0,1-.732-2.358A12.779,12.779,0,0,1,20.444,32c0-.135.016-.269.02-.4.158,0,.39,0,.677,0h0a47.237,47.237,0,0,0,12.2-1.828c.37.724.711,1.46,1.035,2.194-.165.047-.332.087-.494.14a16.613,16.613,0,0,0-1.975.794c-.089.042-.181.081-.269.124a17.85,17.85,0,0,0-1.66.934c-.1.062-.194.124-.291.187-.508.335-.989.681-1.435,1.037-.071.057-.136.113-.206.17-.455.373-.886.749-1.273,1.122h0c-.4.382-.748.754-1.073,1.115-.046.051-.093.1-.138.152-.3.338-.563.657-.8.956l-.129.165M21.431,27.113a12.761,12.761,0,0,1,1.157-2.133,12.262,12.262,0,0,1,5.107-4.348,78.005,78.005,0,0,1,4.594,7.162q-.595.157-1.178.295h0a49.407,49.407,0,0,1-7.938,1.18h-.005c-.778.051-1.416.074-1.877.084h-.016c-.226,0-.41.006-.545.006a12.472,12.472,0,0,1,.7-2.247M30.469,19.7a12.535,12.535,0,0,1,9.551,1.889,12.817,12.817,0,0,1,1.259,1.038A14,14,0,0,1,36.19,26.4l-.026.012c-.437.2-.905.4-1.406.591a65.808,65.808,0,0,0-4.606-7.225c.106-.025.21-.059.316-.082M46.821,26.16a15.267,15.267,0,0,0-1.383-2.55,15.125,15.125,0,0,0-4.049-4.049,14.995,14.995,0,0,0-16.779,0,15.025,15.025,0,0,0-5.432,6.6,15.026,15.026,0,0,0,0,11.677,15.188,15.188,0,0,0,1.383,2.552,15.431,15.431,0,0,0,1.831,2.218,15.267,15.267,0,0,0,2.218,1.829,14.976,14.976,0,0,0,16.779,0,15.285,15.285,0,0,0,2.218-1.829,15.454,15.454,0,0,0,1.831-2.218,15.21,15.21,0,0,0,1.383-2.552,15.033,15.033,0,0,0,0-11.677" transform="translate(4477 821)"/>
</svg>
