<svg xmlns="http://www.w3.org/2000/svg" viewBox="4393 838 31.639 30">
  <defs>
    <style>
      .cls-1 {
        fill: #1feaff;
        fill-rule: evenodd;
      }
    </style>
  </defs>
  <g id="group-1" transform="translate(3659 759)">
    <path id="Fill-182" class="cls-1" d="M20.9,25.118a3.739,3.739,0,0,0,3.9-3.557A3.741,3.741,0,0,0,20.9,18,3.741,3.741,0,0,0,17,21.561a3.739,3.739,0,0,0,3.9,3.557" transform="translate(717 61)"/>
    <path id="Fill-183" class="cls-1" d="M18,49.172h6.994V29H18Z" transform="translate(716.893 59.828)"/>
    <path id="Fill-184" class="cls-1" d="M35.983,37.846c0-2.313,1.094-4.575,3.711-4.575s3.26,2.262,3.26,4.52V48.808h6.963V37.34c0-7.967-4.709-9.34-7.606-9.34s-4.491.979-6.329,3.352V28.636H29V48.808h6.983Z" transform="translate(715.721 59.935)"/>
  </g>
</svg>
